<?xml version="1.0" encoding="UTF-8"?>
<svg version="1.1" xmlns="http://www.w3.org/2000/svg" width="512" height="512">
<path d="M0 0 C4.117982 0.00574908 8.23590001 0.00227373 12.35387993 -0.0034523 C31.50051818 -0.02584218 50.58988346 0.21579214 69.71850586 1.13037109 C69.92737581 12.20484625 70.08712122 23.27885018 70.18481541 34.35489655 C70.2317138 39.49853769 70.29528281 44.64082782 70.39746094 49.78369141 C70.49551938 54.75049532 70.54911877 59.71600313 70.57240105 64.68370056 C70.5889838 66.575235 70.62136892 68.46670134 70.67007637 70.35768127 C71.03749314 85.21801876 71.03749314 85.21801876 67.73080444 90.01226807 C65.48917776 91.99569441 63.24070876 93.53528139 60.71850586 95.13037109 C58.54854941 98.03084889 58.54854941 98.03084889 57.21850586 100.88037109 C56.52241211 102.23388672 56.52241211 102.23388672 55.81225586 103.61474609 C52.2406599 111.82941681 52.20483857 123.31562282 55.40600586 131.69287109 C56.13178551 133.19465735 56.89999627 134.67704384 57.71850586 136.13037109 C58.0575293 136.76201172 58.39655273 137.39365234 58.74584961 138.04443359 C63.40609791 145.57380273 71.62389298 150.57313235 80.08959961 152.69287109 C91.13938457 154.53176547 100.89274123 152.80273169 110.09350586 146.25537109 C117.16857662 140.4653642 121.95765669 133.16939681 123.71850586 124.13037109 C124.74362909 111.87930828 122.30629849 102.75233568 114.69506836 93.10302734 C112.7212161 90.9365093 112.7212161 90.9365093 109.63754272 89.52313232 C106.71850586 87.13037109 106.71850586 87.13037109 105.99697876 83.42242432 C105.97962614 81.9061675 105.99545642 80.38931235 106.03735352 78.87353516 C106.03647736 78.04389755 106.0356012 77.21425995 106.03469849 76.35948181 C106.03887456 73.62069108 106.08552461 70.88435814 106.13256836 68.14599609 C106.1437605 66.24600564 106.1523006 64.34599785 106.15829468 62.44598389 C106.18119167 57.44781595 106.24012243 52.45069605 106.30651855 47.45294189 C106.36792231 42.35207294 106.39530562 37.25103444 106.42553711 32.14990234 C106.48986479 22.14293173 106.59225489 12.1367386 106.71850586 2.13037109 C110.59312352 2.34631687 114.46658325 2.57705743 118.33959961 2.82006836 C120.28577671 2.93933335 122.23261125 3.04771452 124.17944336 3.15576172 C146.74997493 4.59520889 165.45942953 11.15745451 181.71850586 27.13037109 C182.8805957 28.25572266 182.8805957 28.25572266 184.06616211 29.40380859 C198.50670922 44.31497387 203.10605778 63.01211567 204.71850586 83.13037109 C204.80527588 84.15783447 204.80527588 84.15783447 204.89379883 85.20605469 C207.9174987 121.9301009 208.35083896 164.33697773 183.71850586 194.13037109 C183.03143555 194.97986328 182.34436523 195.82935547 181.63647461 196.70458984 C153.44926745 229.86899754 107.10505076 230.07904804 66.99572754 233.37710571 C52.24186018 234.51966043 37.55933029 235.2926538 22.76147461 235.33349609 C21.17910233 235.34047878 19.5967303 235.34751971 18.01435852 235.35461426 C12.97823744 235.37390305 7.94215986 235.37879169 2.90600586 235.38037109 C2.04729889 235.38096024 1.18859192 235.38154938 0.30386353 235.38215637 C-26.18958598 235.39498201 -52.5130497 234.97280538 -78.89959717 232.36468506 C-81.3616953 232.12248148 -83.82460565 231.89047941 -86.2878418 231.66015625 C-160.68356253 224.64071694 -160.68356253 224.64071694 -187.34399414 193.62646484 C-202.69979857 173.84348293 -207.07611028 152.47197344 -207.84399414 128.13037109 C-207.90659424 126.19315186 -207.90659424 126.19315186 -207.97045898 124.21679688 C-210.13971768 53.65833759 -210.13971768 53.65833759 -185.75390625 27.43457031 C-170.06221533 11.40619334 -150.13217498 4.9769075 -128.28149414 3.13037109 C-122.01149414 3.13037109 -115.74149414 3.13037109 -109.28149414 3.13037109 C-109.28149414 19.63037109 -109.28149414 36.13037109 -109.28149414 53.13037109 C-114.56149414 55.44037109 -119.84149414 57.75037109 -125.28149414 60.13037109 C-129.23677107 62.72602158 -132.71444824 65.11793953 -136.28149414 68.13037109 C-136.99692383 68.73365234 -137.71235352 69.33693359 -138.44946289 69.95849609 C-152.29971612 82.71037334 -158.48213931 101.15939041 -159.40258789 119.54980469 C-159.5017221 122.18132229 -159.55778103 124.80976465 -159.59399414 127.44287109 C-159.61179932 128.26674316 -159.62960449 129.09061523 -159.64794922 129.93945312 C-159.63935552 136.51693572 -158.76817577 143.01071596 -154.56274414 148.28662109 C-153.97493164 148.73005859 -153.38711914 149.17349609 -152.78149414 149.63037109 C-152.19368164 150.09443359 -151.60586914 150.55849609 -151.00024414 151.03662109 C-146.50687222 153.89603959 -141.4065803 153.79093775 -136.28149414 153.13037109 C-131.07298363 151.15166949 -127.76416376 148.26675796 -125.08032227 143.3137207 C-123.44841528 138.85340768 -123.73247406 134.13825466 -123.71899414 129.44287109 C-123.39314405 115.78389297 -122.51538408 105.43997497 -112.58227539 95.41552734 C-105.97702162 89.34463118 -98.51777394 86.75022486 -89.51586914 86.91943359 C-80.470103 87.77340452 -72.19938686 91.59937302 -66.23461914 98.49755859 C-58.7005079 108.74021396 -58.94450069 117.80261043 -58.89086914 130.17138672 C-58.74894847 137.27136273 -58.19062834 142.12832475 -54.28149414 148.13037109 C-49.2064108 152.16972314 -45.05476525 153.500928 -38.69555664 153.40771484 C-33.07296802 152.76175401 -29.33051107 150.44836672 -25.84399414 146.06787109 C-19.61511357 134.35757562 -21.9012101 113.60501868 -25.31274414 101.01708984 C-25.63243164 100.06447266 -25.95211914 99.11185547 -26.28149414 98.13037109 C-26.62180664 97.10556641 -26.96211914 96.08076172 -27.31274414 95.02490234 C-30.13726459 87.49602858 -34.30119335 81.39782716 -39.28149414 75.13037109 C-39.91571289 74.28990234 -40.54993164 73.44943359 -41.20336914 72.58349609 C-49.40267628 62.90461474 -60.99431907 58.44198289 -72.28149414 53.13037109 C-72.28149414 35.97037109 -72.28149414 18.81037109 -72.28149414 1.13037109 C-48.17553235 0.41350747 -24.11464952 -0.03405213 0 0 Z " fill="#A16CE6" transform="translate(257.281494140625,276.86962890625)"/>
<path d="M0 0 C3.41456091 2.9190571 6.72788676 5.92272362 10 9 C10.90298828 9.80630859 10.90298828 9.80630859 11.82421875 10.62890625 C33.55934377 30.84409246 44.97417928 62.92994242 46.16015625 91.9140625 C47.07824592 126.64975187 34.92937919 158.12804492 11.36328125 183.56640625 C-11.45576686 207.06436819 -41.72430498 220.65746619 -74.52197266 221.40454102 C-110.86222624 221.72052287 -140.54485768 209.8798799 -167 185 C-167.60199219 184.46246094 -168.20398438 183.92492187 -168.82421875 183.37109375 C-189.52275645 164.12000624 -201.71552471 133.46031513 -203.12451172 105.53198242 C-204.14791824 72.264914 -195.4507719 39.74938731 -172.5 14.75 C-170.68082976 12.81913715 -168.84163662 10.90964388 -167 9 C-166.34386719 8.28070313 -165.68773437 7.56140625 -165.01171875 6.8203125 C-150.47002273 -8.68667811 -130.21168602 -18.39860895 -110 -24 C-108.81148438 -24.3403125 -107.62296875 -24.680625 -106.3984375 -25.03125 C-69.4834022 -33.71714066 -29.06467176 -23.96202573 0 0 Z " fill="#A16CE6" transform="translate(332,27)"/>
</svg>
