<?xml version="1.0" encoding="UTF-8"?>
<svg version="1.1" xmlns="http://www.w3.org/2000/svg" width="512" height="512">
<path d="M0 0 C2.43079897 0.00315247 4.86036642 -0.02037594 7.29101562 -0.0456543 C21.93559076 -0.10565638 36.13027576 1.85378204 50.19726562 6.00317383 C51.06617432 6.25663574 51.93508301 6.51009766 52.83032227 6.77124023 C92.06251459 18.67189797 125.82034177 46.42995517 145.55810547 82.27026367 C166.99943093 122.39160517 172.49940719 169.93737166 159.93359375 213.80957031 C158.95555688 217.01904675 157.84059271 220.16062754 156.69726562 223.31567383 C156.26800781 224.51836914 155.83875 225.72106445 155.39648438 226.96020508 C147.52044055 247.79289566 135.92482475 265.31736903 121.69726562 282.31567383 C120.05885372 284.30005979 118.42433536 286.2876141 116.79003906 288.27539062 C114.98586802 290.46973963 113.17973087 292.66245601 111.37304688 294.85473633 C107.81357614 299.1743269 104.25527368 303.49487843 100.69726562 307.81567383 C97.13925757 312.13646922 93.58095511 316.45702076 90.02148438 320.77661133 C82.59729254 329.78621945 82.59729254 329.78621945 75.19726562 338.81567383 C68.43860892 347.08597094 61.63714525 355.32115465 54.84472656 363.5637207 C46.50728167 373.67843349 46.50728167 373.67843349 38.19726562 383.81567383 C34.32684367 388.54860555 30.45253025 393.27830902 26.57226562 398.00317383 C25.99798828 398.70442383 25.42371094 399.40567383 24.83203125 400.12817383 C23.12992778 402.19877393 21.4164093 404.25920523 19.69726562 406.31567383 C19.08786133 407.05124512 18.47845703 407.78681641 17.85058594 408.54467773 C17.24569336 409.25930176 16.64080078 409.97392578 16.01757812 410.71020508 C15.47633301 411.35449463 14.93508789 411.99878418 14.37744141 412.66259766 C10.86381135 416.11955626 7.65090877 416.62924071 2.82226562 416.69067383 C1.81421875 416.7190332 0.80617187 416.74739258 -0.23242188 416.77661133 C-6.94334798 415.7691186 -10.88843008 410.90253386 -14.99023438 405.94067383 C-15.50714844 405.32708008 -16.0240625 404.71348633 -16.55664062 404.08129883 C-20.53147601 399.33088581 -24.35764992 394.46920923 -28.15258789 389.57470703 C-31.9431 384.70857337 -35.92124265 380.02539162 -39.95629883 375.36132812 C-44.5094139 370.09620939 -48.91912656 364.72266068 -53.30273438 359.31567383 C-59.23076974 352.05158504 -65.18663566 344.81072262 -71.14916992 337.57495117 C-74.37387984 333.66075451 -77.59389804 329.74290636 -80.80273438 325.81567383 C-86.33976414 319.0402326 -91.90762462 312.29019707 -97.47216797 305.53735352 C-99.25585037 303.37257493 -101.03915096 301.20748258 -102.82226562 299.04223633 C-103.39710693 298.34453125 -103.97194824 297.64682617 -104.56420898 296.92797852 C-105.72657078 295.51571138 -106.88753396 294.10229199 -108.04711914 292.68774414 C-110.95697025 289.14178226 -113.88845752 285.6193656 -116.87304688 282.13598633 C-148.04665688 245.53048154 -164.3096411 200.02137303 -160.83007812 151.80395508 C-157.60571305 115.50551933 -144.22415817 81.85408266 -120.30273438 54.31567383 C-119.51125 53.39012695 -118.71976563 52.46458008 -117.90429688 51.51098633 C-112.21162944 45.02816947 -106.12869285 39.57439979 -99.30273438 34.31567383 C-98.40167969 33.58735352 -97.500625 32.8590332 -96.57226562 32.10864258 C-79.77735935 18.88120605 -60.00559002 9.96933459 -39.42773438 4.44067383 C-38.71625244 4.24948975 -38.00477051 4.05830566 -37.27172852 3.86132812 C-24.93415808 0.77308046 -12.65737879 -0.0341476 0 0 Z M-43.05273438 115.50317383 C-56.41060739 129.9908172 -61.55968513 146.49220756 -60.78320312 165.96020508 C-59.59923829 182.72359632 -51.44366857 196.876955 -39.30273438 208.31567383 C-25.89922949 219.35903462 -10.04874811 224.90690023 7.33007812 224.15942383 C24.15289523 222.20240707 40.9380532 214.82724292 51.69726562 201.31567383 C63.68676977 185.35751849 67.88915845 169.28168905 65.69726562 149.31567383 C62.78958619 132.12166711 52.4048051 117.71763177 38.50976562 107.50317383 C12.26354842 89.71740244 -20.35499061 94.89257892 -43.05273438 115.50317383 Z " fill="#A16CE6" transform="translate(253.302734375,47.684326171875)"/>
</svg>
