<?xml version="1.0" encoding="UTF-8"?>
<svg version="1.1" xmlns="http://www.w3.org/2000/svg" width="512" height="512">
<path d="M0 0 C11.20192325 7.08938922 19.41714105 17.34139332 22.57250977 30.3389225 C23.55423715 36.45006247 23.29182108 42.70749044 23.28710938 48.88354492 C23.29314029 50.49235885 23.30006624 52.10116963 23.30781555 53.7099762 C23.32265384 57.16170864 23.33144089 60.61338374 23.33552551 64.06514549 C23.34226018 69.52382009 23.36403724 74.98237215 23.38806152 80.44099426 C23.44109541 93.00856406 23.47457576 105.57617151 23.50782013 118.14380646 C23.53851155 129.67375004 23.57333345 141.20364074 23.62413073 152.73351556 C23.64746921 158.15965864 23.66121743 163.5857158 23.66762543 169.01190412 C23.67356243 172.38496191 23.68765667 175.75794987 23.70396996 179.13097191 C23.70984659 180.69466241 23.71231804 182.25836998 23.71113014 183.82207108 C23.70997061 185.95702465 23.72098991 188.09158596 23.73498535 190.22648621 C23.73791847 191.42087909 23.74085159 192.61527197 23.7438736 193.84585857 C24.0061894 197.07622116 24.35538799 199.20598297 26 202 C29.81711901 204.24614244 33.38103889 204.25032539 37.73986816 204.2515564 C38.7370717 204.2560116 38.7370717 204.2560116 39.75442076 204.26055682 C41.97504088 204.26817579 44.19539485 204.26171136 46.41601562 204.25537109 C48.01140522 204.25812214 49.60679345 204.26180274 51.20217896 204.26634216 C54.6359492 204.27444883 58.06965435 204.27662387 61.50343323 204.27439499 C66.94305719 204.27155719 72.38255174 204.28593344 77.82214355 204.30337524 C93.28993776 204.3503509 108.75772357 204.37432461 124.22558594 204.38085938 C132.7700591 204.38462153 141.31438607 204.40274651 149.8587966 204.43595374 C155.25522137 204.4560722 160.6512666 204.45858453 166.04771328 204.44767356 C169.42230991 204.44504811 172.79669021 204.45915995 176.17123032 204.47775459 C177.72349632 204.48303322 179.27580326 204.48165492 180.82805252 204.47271919 C196.28041143 204.39101966 208.78310515 207.26991298 220.21875 218.1015625 C230.70230097 229.17187939 233.69996226 241.10412727 233.375 255.9296875 C232.71373207 268.64020183 226.22545629 278.25869429 217.1875 286.75 C205.67549084 296.34705213 193.49592795 297.29807945 179.11645508 297.28710938 C177.50764115 297.29314029 175.89883037 297.30006624 174.2900238 297.30781555 C170.83829136 297.32265384 167.38661626 297.33144089 163.93485451 297.33552551 C158.47617991 297.34226018 153.01762785 297.36403724 147.55900574 297.38806152 C134.99143594 297.44109541 122.42382849 297.47457576 109.85619354 297.50782013 C98.32624996 297.53851155 86.79635926 297.57333345 75.26648444 297.62413073 C69.84034136 297.64746921 64.4142842 297.66121743 58.98809588 297.66762543 C55.61503809 297.67356243 52.24205013 297.68765667 48.86902809 297.70396996 C47.30533759 297.70984659 45.74163002 297.71231804 44.17792892 297.71113014 C42.04297535 297.70997061 39.90841404 297.72098991 37.77351379 297.73498535 C36.57912091 297.73791847 35.38472803 297.74085159 34.15414143 297.7438736 C30.92377884 298.0061894 28.79401703 298.35538799 26 300 C23.75385756 303.81711901 23.74967461 307.38103889 23.7484436 311.73986816 C23.74547346 312.40467052 23.74250333 313.06947288 23.73944318 313.75442076 C23.73182421 315.97504088 23.73828864 318.19539485 23.74462891 320.41601562 C23.74187786 322.01140522 23.73819726 323.60679345 23.73365784 325.20217896 C23.72555117 328.6359492 23.72337613 332.06965435 23.72560501 335.50343323 C23.72844281 340.94305719 23.71406656 346.38255174 23.69662476 351.82214355 C23.6496491 367.28993776 23.62567539 382.75772357 23.61914062 398.22558594 C23.61537847 406.7700591 23.59725349 415.31438607 23.56404626 423.8587966 C23.5439278 429.25522137 23.54141547 434.6512666 23.55232644 440.04771328 C23.55495189 443.42230991 23.54084005 446.79669021 23.52224541 450.17123032 C23.51696678 451.72349632 23.51834508 453.27580326 23.52728081 454.82805252 C23.60898034 470.28041143 20.73008702 482.78310515 9.8984375 494.21875 C-1.17187939 504.70230097 -13.10412727 507.69996226 -27.9296875 507.375 C-40.64020183 506.71373207 -50.25869429 500.22545629 -58.75 491.1875 C-68.34705213 479.67549084 -69.29807945 467.49592795 -69.28710938 453.11645508 C-69.29314029 451.50764115 -69.30006624 449.89883037 -69.30781555 448.2900238 C-69.32265384 444.83829136 -69.33144089 441.38661626 -69.33552551 437.93485451 C-69.34226018 432.47617991 -69.36403724 427.01762785 -69.38806152 421.55900574 C-69.44109541 408.99143594 -69.47457576 396.42382849 -69.50782013 383.85619354 C-69.53851155 372.32624996 -69.57333345 360.79635926 -69.62413073 349.26648444 C-69.64746921 343.84034136 -69.66121743 338.4142842 -69.66762543 332.98809588 C-69.67356243 329.61503809 -69.68765667 326.24205013 -69.70396996 322.86902809 C-69.70984659 321.30533759 -69.71231804 319.74163002 -69.71113014 318.17792892 C-69.70997061 316.04297535 -69.72098991 313.90841404 -69.73498535 311.77351379 C-69.73938503 309.98192447 -69.73938503 309.98192447 -69.7438736 308.15414143 C-70.0061894 304.92377884 -70.35538799 302.79401703 -72 300 C-75.81711901 297.75385756 -79.38103889 297.74967461 -83.73986816 297.7484436 C-84.40467052 297.74547346 -85.06947288 297.74250333 -85.75442076 297.73944318 C-87.97504088 297.73182421 -90.19539485 297.73828864 -92.41601562 297.74462891 C-94.01140522 297.74187786 -95.60679345 297.73819726 -97.20217896 297.73365784 C-100.6359492 297.72555117 -104.06965435 297.72337613 -107.50343323 297.72560501 C-112.94305719 297.72844281 -118.38255174 297.71406656 -123.82214355 297.69662476 C-139.28993776 297.6496491 -154.75772357 297.62567539 -170.22558594 297.61914062 C-178.7700591 297.61537847 -187.31438607 297.59725349 -195.8587966 297.56404626 C-201.25522137 297.5439278 -206.6512666 297.54141547 -212.04771328 297.55232644 C-215.42230991 297.55495189 -218.79669021 297.54084005 -222.17123032 297.52224541 C-223.72349632 297.51696678 -225.27580326 297.51834508 -226.82805252 297.52728081 C-242.28041143 297.60898034 -254.78310515 294.73008702 -266.21875 283.8984375 C-276.70230097 272.82812061 -279.69996226 260.89587273 -279.375 246.0703125 C-278.71373207 233.35979817 -272.22545629 223.74130571 -263.1875 215.25 C-251.67549084 205.65294787 -239.49592795 204.70192055 -225.11645508 204.71289062 C-223.50764115 204.70685971 -221.89883037 204.69993376 -220.2900238 204.69218445 C-216.83829136 204.67734616 -213.38661626 204.66855911 -209.93485451 204.66447449 C-204.47617991 204.65773982 -199.01762785 204.63596276 -193.55900574 204.61193848 C-180.99143594 204.55890459 -168.42382849 204.52542424 -155.85619354 204.49217987 C-144.32624996 204.46148845 -132.79635926 204.42666655 -121.26648444 204.37586927 C-115.84034136 204.35253079 -110.4142842 204.33878257 -104.98809588 204.33237457 C-101.61503809 204.32643757 -98.24205013 204.31234333 -94.86902809 204.29603004 C-93.30533759 204.29015341 -91.74163002 204.28768196 -90.17792892 204.28886986 C-88.04297535 204.29002939 -85.90841404 204.27901009 -83.77351379 204.26501465 C-82.57912091 204.26208153 -81.38472803 204.25914841 -80.15414143 204.2561264 C-76.92377884 203.9938106 -74.79401703 203.64461201 -72 202 C-69.75385756 198.18288099 -69.74967461 194.61896111 -69.7484436 190.26013184 C-69.74547346 189.59532948 -69.74250333 188.93052712 -69.73944318 188.24557924 C-69.73182421 186.02495912 -69.73828864 183.80460515 -69.74462891 181.58398438 C-69.74187786 179.98859478 -69.73819726 178.39320655 -69.73365784 176.79782104 C-69.72555117 173.3640508 -69.72337613 169.93034565 -69.72560501 166.49656677 C-69.72844281 161.05694281 -69.71406656 155.61744826 -69.69662476 150.17785645 C-69.6496491 134.71006224 -69.62567539 119.24227643 -69.61914062 103.77441406 C-69.61537847 95.2299409 -69.59725349 86.68561393 -69.56404626 78.1412034 C-69.5439278 72.74477863 -69.54141547 67.3487334 -69.55232644 61.95228672 C-69.55495189 58.57769009 -69.54084005 55.20330979 -69.52224541 51.82876968 C-69.51696678 50.27650368 -69.51834508 48.72419674 -69.52728081 47.17194748 C-69.60898034 31.71958857 -66.73008702 19.21689485 -55.8984375 7.78125 C-40.97832505 -6.34804376 -18.23233466 -10.21217047 0 0 Z " fill="#A16CE6" transform="translate(279,5)"/>
</svg>
