<svg xmlns="http://www.w3.org/2000/svg" xmlns:xlink="http://www.w3.org/1999/xlink" width="169" zoomAndPan="magnify" viewBox="0 0 126.75 35.25" height="47" preserveAspectRatio="xMidYMid meet" version="1.0"><defs><clipPath id="1be7e50da1"><path d="M 1.199219 0 L 125.308594 0 L 125.308594 34.515625 L 1.199219 34.515625 Z M 1.199219 0 " clip-rule="nonzero"/></clipPath><clipPath id="eff398c822"><path d="M 1.371094 0.480469 L 35 0.480469 L 35 33.527344 L 1.371094 33.527344 Z M 1.371094 0.480469 " clip-rule="nonzero"/></clipPath><clipPath id="ec49244e1b"><path d="M 92.097656 1.324219 L 117 1.324219 L 117 33.636719 L 92.097656 33.636719 Z M 92.097656 1.324219 " clip-rule="nonzero"/></clipPath><clipPath id="c28fea1f9c"><path d="M 108 10 L 124.410156 10 L 124.410156 22 L 108 22 Z M 108 10 " clip-rule="nonzero"/></clipPath></defs><g clip-path="url(#1be7e50da1)"><path fill="#ffffff" d="M 1.199219 0 L 125.308594 0 L 125.308594 34.515625 L 1.199219 34.515625 Z M 1.199219 0 " fill-opacity="1" fill-rule="nonzero"/></g><g clip-path="url(#eff398c822)"><path fill="#a16ce6" d="M 34.257812 8.28125 L 30.167969 8.28125 L 30.167969 4.191406 C 30.167969 3.894531 29.929688 3.65625 29.632812 3.65625 L 23.039062 3.65625 C 22.742188 3.65625 22.503906 3.894531 22.503906 4.191406 L 22.503906 8.28125 L 18.414062 8.28125 C 18.117188 8.28125 17.875 8.523438 17.875 8.820312 L 17.875 15.414062 C 17.875 15.710938 18.117188 15.949219 18.414062 15.949219 L 22.503906 15.949219 L 22.503906 20.039062 C 22.503906 20.335938 22.742188 20.578125 23.039062 20.578125 L 25.59375 20.578125 C 25.394531 23.226562 24.746094 25.796875 23.664062 28.230469 L 22.710938 30.355469 C 22.0625 31.8125 20.613281 32.75 19.019531 32.75 C 18.53125 32.75 18.136719 32.355469 18.136719 31.867188 L 18.136719 29.464844 C 18.136719 27.03125 17.738281 24.628906 16.957031 22.324219 C 16.753906 21.734375 16.222656 21.351562 15.601562 21.351562 C 14.976562 21.351562 14.445312 21.734375 14.246094 22.324219 C 13.460938 24.628906 13.066406 27.03125 13.066406 29.464844 L 13.066406 31.867188 C 13.066406 32.355469 12.667969 32.75 12.179688 32.75 C 10.585938 32.75 9.136719 31.8125 8.488281 30.355469 L 7.539062 28.230469 C 6.214844 25.269531 5.546875 22.121094 5.546875 18.878906 C 5.546875 16.886719 4.953125 14.992188 3.832031 13.394531 C 2.925781 12.105469 2.457031 10.589844 2.476562 9.007812 C 2.496094 7.050781 3.273438 5.199219 4.667969 3.800781 C 6.0625 2.402344 7.910156 1.617188 9.867188 1.589844 C 11.703125 1.566406 13.449219 2.195312 14.832031 3.375 C 14.132812 4.152344 13.582031 5.054688 13.207031 6.042969 C 13.101562 6.320312 13.242188 6.632812 13.519531 6.738281 C 13.582031 6.761719 13.644531 6.773438 13.710938 6.773438 C 13.925781 6.773438 14.128906 6.640625 14.210938 6.425781 C 14.75 5.011719 15.695312 3.800781 16.941406 2.929688 C 18.203125 2.050781 19.683594 1.589844 21.226562 1.589844 C 21.246094 1.589844 21.265625 1.589844 21.285156 1.589844 C 22.636719 1.601562 23.964844 1.984375 25.125 2.707031 C 25.378906 2.863281 25.707031 2.785156 25.863281 2.53125 C 26.019531 2.28125 25.941406 1.949219 25.691406 1.792969 C 24.363281 0.96875 22.839844 0.527344 21.292969 0.515625 C 19.511719 0.503906 17.789062 1.03125 16.328125 2.050781 C 16.074219 2.226562 15.832031 2.417969 15.601562 2.617188 C 14.007812 1.230469 11.988281 0.484375 9.855469 0.515625 C 7.613281 0.546875 5.5 1.445312 3.910156 3.042969 C 2.316406 4.640625 1.425781 6.757812 1.402344 8.996094 C 1.382812 10.804688 1.917969 12.539062 2.953125 14.011719 C 3.945312 15.425781 4.472656 17.109375 4.472656 18.878906 C 4.472656 22.273438 5.171875 25.566406 6.558594 28.667969 L 7.507812 30.796875 C 8.328125 32.636719 10.164062 33.828125 12.179688 33.828125 C 13.261719 33.828125 14.140625 32.945312 14.140625 31.867188 L 14.140625 29.464844 C 14.140625 27.148438 14.519531 24.863281 15.261719 22.667969 C 15.335938 22.449219 15.523438 22.425781 15.601562 22.425781 C 15.675781 22.425781 15.863281 22.449219 15.9375 22.667969 C 16.683594 24.863281 17.0625 27.148438 17.0625 29.464844 L 17.0625 31.867188 C 17.0625 32.945312 17.941406 33.828125 19.019531 33.828125 C 21.039062 33.828125 22.871094 32.636719 23.695312 30.796875 L 24.644531 28.667969 C 25.792969 26.097656 26.472656 23.378906 26.667969 20.578125 L 29.632812 20.578125 C 29.929688 20.578125 30.167969 20.335938 30.167969 20.039062 L 30.167969 15.414062 C 30.167969 15.117188 29.929688 14.875 29.632812 14.875 C 29.335938 14.875 29.09375 15.117188 29.09375 15.414062 L 29.09375 19.503906 L 23.578125 19.503906 L 23.578125 15.414062 C 23.578125 15.117188 23.335938 14.875 23.039062 14.875 L 18.949219 14.875 L 18.949219 9.355469 L 23.039062 9.355469 C 23.335938 9.355469 23.578125 9.117188 23.578125 8.820312 L 23.578125 4.730469 L 29.09375 4.730469 L 29.09375 8.820312 C 29.09375 9.117188 29.335938 9.355469 29.632812 9.355469 L 33.722656 9.355469 L 33.722656 14.875 L 31.628906 14.875 C 31.332031 14.875 31.09375 15.117188 31.09375 15.414062 C 31.09375 15.710938 31.332031 15.949219 31.628906 15.949219 L 34.257812 15.949219 C 34.554688 15.949219 34.796875 15.710938 34.796875 15.414062 L 34.796875 8.820312 C 34.796875 8.523438 34.554688 8.28125 34.257812 8.28125 Z M 34.257812 8.28125 " fill-opacity="1" fill-rule="nonzero"/></g><path fill="#a16ce6" d="M 6.019531 6.425781 C 6.925781 5.019531 8.460938 4.179688 10.132812 4.179688 C 10.429688 4.179688 10.667969 3.941406 10.667969 3.644531 C 10.667969 3.347656 10.429688 3.105469 10.132812 3.105469 C 8.09375 3.105469 6.21875 4.128906 5.117188 5.84375 C 4.957031 6.09375 5.027344 6.425781 5.277344 6.585938 C 5.367188 6.644531 5.46875 6.671875 5.566406 6.671875 C 5.742188 6.671875 5.917969 6.585938 6.019531 6.425781 Z M 6.019531 6.425781 " fill-opacity="1" fill-rule="nonzero"/><path fill="#a16ce6" d="M 4.847656 7.722656 C 4.554688 7.675781 4.28125 7.878906 4.238281 8.171875 C 4.191406 8.464844 4.171875 8.769531 4.171875 9.066406 C 4.171875 9.363281 4.410156 9.605469 4.707031 9.605469 C 5.003906 9.605469 5.246094 9.363281 5.246094 9.066406 C 5.246094 8.820312 5.261719 8.574219 5.300781 8.332031 C 5.34375 8.039062 5.140625 7.765625 4.847656 7.722656 Z M 4.847656 7.722656 " fill-opacity="1" fill-rule="nonzero"/><g clip-path="url(#ec49244e1b)"><path fill="#a16ce6" d="M 114.160156 23.972656 C 114.03125 23.90625 113.898438 23.894531 113.757812 23.9375 C 113.617188 23.980469 113.515625 24.066406 113.445312 24.195312 C 110.617188 29.527344 104.898438 32.691406 100.820312 32.691406 C 100.074219 32.703125 99.351562 32.582031 98.648438 32.332031 C 95.429688 31.105469 95.28125 28.074219 95.121094 24.878906 C 95.085938 24.011719 95.035156 23.128906 94.925781 22.285156 C 96.582031 23.519531 98.441406 24.214844 100.503906 24.371094 L 100.914062 24.402344 C 101.351562 24.519531 101.714844 24.75 102.003906 25.097656 C 102.292969 25.441406 102.460938 25.839844 102.5 26.289062 C 102.507812 26.433594 102.5625 26.558594 102.671875 26.65625 C 102.78125 26.757812 102.910156 26.804688 103.054688 26.796875 C 103.203125 26.789062 103.328125 26.730469 103.425781 26.625 C 103.523438 26.515625 103.570312 26.386719 103.566406 26.238281 C 103.511719 25.59375 103.292969 25.015625 102.898438 24.5 L 103.707031 24.5 C 106.109375 24.574219 107.703125 24.617188 108.359375 25.609375 C 108.460938 25.773438 108.605469 25.851562 108.796875 25.855469 C 108.90625 25.851562 109.003906 25.824219 109.09375 25.769531 C 109.214844 25.6875 109.292969 25.574219 109.320312 25.429688 C 109.351562 25.285156 109.324219 25.152344 109.246094 25.027344 C 108.289062 23.570312 106.378906 23.515625 103.734375 23.441406 C 102.800781 23.410156 101.738281 23.386719 100.59375 23.289062 C 100.296875 23.289062 99.984375 23.222656 99.726562 23.171875 C 99.835938 23.109375 99.9375 23.039062 100.03125 22.957031 C 100.628906 22.34375 100.890625 21.609375 100.820312 20.753906 C 100.808594 20.617188 100.753906 20.503906 100.652344 20.414062 C 100.554688 20.320312 100.4375 20.273438 100.300781 20.269531 L 100.246094 20.269531 C 100.101562 20.285156 99.980469 20.347656 99.886719 20.460938 C 99.792969 20.570312 99.753906 20.699219 99.761719 20.847656 C 99.796875 21.363281 99.636719 21.8125 99.277344 22.1875 C 98.941406 22.453125 98.558594 22.570312 98.128906 22.542969 C 97.824219 22.535156 97.519531 22.503906 97.222656 22.4375 C 96.1875 21.96875 95.273438 21.328125 94.480469 20.515625 C 94.382812 20.207031 94.257812 19.914062 94.105469 19.628906 C 93.382812 18.285156 94.902344 16.566406 96.511719 14.730469 C 98.484375 12.484375 100.710938 9.941406 98.960938 7.480469 C 98.457031 6.746094 96.859375 5.769531 96.136719 5.351562 C 96.328125 4.390625 96.460938 3.425781 96.535156 2.449219 C 97.929688 2.6875 99.238281 3.167969 100.453125 3.886719 C 100.511719 3.945312 100.578125 3.984375 100.65625 4.011719 C 101.941406 4.828125 103.035156 5.847656 103.9375 7.074219 C 104.84375 8.300781 105.492188 9.648438 105.890625 11.117188 C 105.96875 11.363281 106.140625 11.488281 106.398438 11.492188 L 106.558594 11.492188 C 106.699219 11.445312 106.800781 11.359375 106.867188 11.230469 C 106.9375 11.097656 106.949219 10.964844 106.90625 10.824219 C 106.53125 9.484375 105.960938 8.230469 105.195312 7.070312 C 104.429688 5.90625 103.507812 4.886719 102.425781 4.011719 C 103.976562 3.992188 105.46875 4.273438 106.90625 4.863281 C 108.34375 5.449219 109.609375 6.289062 110.703125 7.390625 L 110.789062 7.476562 C 110.953125 7.648438 111.113281 7.824219 111.261719 8.003906 C 111.320312 8.074219 111.386719 8.148438 111.445312 8.222656 C 112.285156 9.269531 112.964844 10.410156 113.488281 11.644531 C 113.578125 11.855469 113.742188 11.964844 113.972656 11.964844 C 114.046875 11.964844 114.117188 11.949219 114.1875 11.921875 C 114.320312 11.863281 114.414062 11.765625 114.46875 11.628906 C 114.519531 11.492188 114.519531 11.355469 114.460938 11.222656 C 114 10.140625 113.425781 9.117188 112.742188 8.160156 C 113.027344 7.773438 113.386719 7.46875 113.816406 7.253906 C 114.25 7.039062 114.707031 6.933594 115.191406 6.9375 C 115.355469 6.9375 115.453125 6.9375 115.460938 6.9375 L 115.515625 6.9375 C 115.601562 6.9375 115.6875 6.921875 115.765625 6.882812 C 115.84375 6.84375 115.910156 6.785156 115.960938 6.714844 C 116.011719 6.644531 116.042969 6.5625 116.058594 6.476562 C 116.070312 6.390625 116.058594 6.304688 116.027344 6.21875 L 114.9375 3.667969 C 114.871094 3.507812 114.75 3.402344 114.578125 3.363281 C 114 3.191406 113.410156 3.105469 112.808594 3.105469 C 111.304688 3.121094 109.984375 3.617188 108.847656 4.597656 C 106.742188 3.433594 104.484375 2.878906 102.078125 2.933594 C 101.699219 2.933594 101.3125 2.933594 100.90625 2.96875 C 99.40625 2.085938 97.789062 1.535156 96.058594 1.324219 L 96.058594 1.53125 L 96.058594 1.324219 C 95.917969 1.324219 95.796875 1.371094 95.691406 1.464844 C 95.574219 1.558594 95.507812 1.683594 95.496094 1.835938 C 95.433594 3.074219 95.277344 4.296875 95.023438 5.511719 C 94.992188 5.628906 94.996094 5.746094 95.046875 5.863281 C 95.09375 5.976562 95.171875 6.0625 95.28125 6.121094 C 96.175781 6.617188 97.730469 7.597656 98.117188 8.136719 C 99.285156 9.789062 97.925781 11.558594 95.722656 14.070312 C 93.945312 16.089844 92.109375 18.183594 93.183594 20.191406 C 93.859375 21.445312 93.945312 23.167969 94.03125 24.992188 C 94.191406 28.230469 94.371094 31.902344 98.238281 33.382812 C 99.058594 33.683594 99.90625 33.828125 100.777344 33.820312 C 105.53125 33.820312 111.613281 29.972656 114.382812 24.769531 C 114.476562 24.632812 114.503906 24.480469 114.457031 24.320312 C 114.414062 24.160156 114.3125 24.042969 114.160156 23.972656 Z M 114.0625 4.324219 L 114.738281 5.902344 C 113.65625 6 112.769531 6.460938 112.066406 7.285156 C 111.394531 6.492188 110.632812 5.796875 109.785156 5.199219 C 110.667969 4.519531 111.667969 4.175781 112.785156 4.167969 C 113.214844 4.171875 113.644531 4.222656 114.0625 4.324219 Z M 114.0625 4.324219 " fill-opacity="1" fill-rule="nonzero"/></g><g clip-path="url(#c28fea1f9c)"><path fill="#a16ce6" d="M 124.378906 10.222656 C 124.273438 10.09375 124.136719 10.03125 123.96875 10.035156 C 123.871094 10.035156 123.777344 10.058594 123.695312 10.109375 L 117.964844 13.664062 L 117.578125 11.339844 C 117.539062 11.117188 117.414062 10.972656 117.195312 10.914062 C 116.976562 10.851562 116.792969 10.910156 116.648438 11.082031 L 108.964844 20.226562 C 108.878906 20.328125 108.832031 20.445312 108.832031 20.578125 C 108.832031 20.710938 108.878906 20.824219 108.964844 20.925781 C 109.074219 21.039062 109.203125 21.097656 109.363281 21.097656 C 109.472656 21.097656 109.570312 21.066406 109.660156 21.003906 L 114.785156 17.429688 L 115.140625 19.617188 C 115.179688 19.832031 115.300781 19.976562 115.515625 20.039062 C 115.566406 20.046875 115.617188 20.046875 115.667969 20.039062 C 115.824219 20.039062 115.953125 19.980469 116.058594 19.867188 L 124.359375 10.921875 C 124.449219 10.824219 124.496094 10.710938 124.5 10.578125 C 124.503906 10.445312 124.464844 10.328125 124.378906 10.222656 Z M 115.390625 16.015625 C 115.324219 15.988281 115.257812 15.976562 115.183594 15.972656 C 115.070312 15.972656 114.96875 16.007812 114.878906 16.070312 L 112.335938 17.851562 L 116.683594 12.660156 L 117.007812 14.625 C 117.039062 14.8125 117.140625 14.941406 117.3125 15.019531 C 117.382812 15.050781 117.457031 15.070312 117.535156 15.066406 C 117.632812 15.066406 117.726562 15.042969 117.808594 14.988281 L 120.945312 13.058594 L 116.046875 18.378906 L 115.730469 16.433594 C 115.695312 16.230469 115.582031 16.09375 115.390625 16.015625 Z M 115.390625 16.015625 " fill-opacity="1" fill-rule="nonzero"/></g><path fill="#a16ce6" d="M 117.046875 21.25 L 116.953125 21.25 L 113.195312 21.863281 C 113.0625 21.890625 112.957031 21.957031 112.878906 22.066406 C 112.796875 22.175781 112.765625 22.296875 112.777344 22.429688 C 112.789062 22.5625 112.839844 22.675781 112.9375 22.769531 C 113.035156 22.863281 113.152344 22.910156 113.285156 22.914062 L 113.371094 22.914062 L 117.128906 22.304688 C 117.261719 22.273438 117.367188 22.207031 117.445312 22.101562 C 117.527344 21.992188 117.5625 21.871094 117.550781 21.738281 C 117.539062 21.605469 117.488281 21.492188 117.390625 21.398438 C 117.292969 21.304688 117.179688 21.257812 117.046875 21.25 Z M 117.046875 21.25 " fill-opacity="1" fill-rule="nonzero"/><path fill="#a16ce6" d="M 110.339844 14.179688 C 110.292969 14.171875 110.242188 14.171875 110.195312 14.179688 C 109.929688 14.175781 109.757812 14.304688 109.679688 14.558594 L 108.78125 17.734375 C 108.738281 17.875 108.753906 18.011719 108.824219 18.140625 C 108.894531 18.265625 109 18.351562 109.140625 18.390625 C 109.191406 18.398438 109.238281 18.398438 109.289062 18.390625 C 109.554688 18.390625 109.726562 18.261719 109.796875 18.003906 L 110.703125 14.792969 C 110.730469 14.660156 110.707031 14.53125 110.640625 14.417969 C 110.570312 14.300781 110.472656 14.21875 110.339844 14.179688 Z M 110.339844 14.179688 " fill-opacity="1" fill-rule="nonzero"/></svg>